<svg id="visual" viewBox="0 0 600 900" width="600" height="900" xmlns="http://www.w3.org/2000/svg" xmlns:xlink="http://www.w3.org/1999/xlink" version="1.1"><rect x="0" y="0" width="600" height="900" fill="#ffffff"></rect><path d="M0 658L14.3 643.7C28.7 629.3 57.3 600.7 85.8 585.8C114.3 571 142.7 570 171.2 569.2C199.7 568.3 228.3 567.7 257 562.5C285.7 557.3 314.3 547.7 343 550.3C371.7 553 400.3 568 428.8 575.7C457.3 583.3 485.7 583.7 514.2 578C542.7 572.3 571.3 560.7 585.7 554.8L600 549L600 901L585.7 901C571.3 901 542.7 901 514.2 901C485.7 901 457.3 901 428.8 901C400.3 901 371.7 901 343 901C314.3 901 285.7 901 257 901C228.3 901 199.7 901 171.2 901C142.7 901 114.3 901 85.8 901C57.3 901 28.7 901 14.3 901L0 901Z" fill="#97abd8"></path><path d="M0 677L14.3 679.2C28.7 681.3 57.3 685.7 85.8 672.3C114.3 659 142.7 628 171.2 617.7C199.7 607.3 228.3 617.7 257 630.8C285.7 644 314.3 660 343 667.2C371.7 674.3 400.3 672.7 428.8 676.7C457.3 680.7 485.7 690.3 514.2 679.8C542.7 669.3 571.3 638.7 585.7 623.3L600 608L600 901L585.7 901C571.3 901 542.7 901 514.2 901C485.7 901 457.3 901 428.8 901C400.3 901 371.7 901 343 901C314.3 901 285.7 901 257 901C228.3 901 199.7 901 171.2 901C142.7 901 114.3 901 85.8 901C57.3 901 28.7 901 14.3 901L0 901Z" fill="#859cd0"></path><path d="M0 744L14.3 738.3C28.7 732.7 57.3 721.3 85.8 723.8C114.3 726.3 142.7 742.7 171.2 745C199.7 747.3 228.3 735.7 257 720.2C285.7 704.7 314.3 685.3 343 679.8C371.7 674.3 400.3 682.7 428.8 698.3C457.3 714 485.7 737 514.2 745.8C542.7 754.7 571.3 749.3 585.7 746.7L600 744L600 901L585.7 901C571.3 901 542.7 901 514.2 901C485.7 901 457.3 901 428.8 901C400.3 901 371.7 901 343 901C314.3 901 285.7 901 257 901C228.3 901 199.7 901 171.2 901C142.7 901 114.3 901 85.8 901C57.3 901 28.7 901 14.3 901L0 901Z" fill="#748dc8"></path><path d="M0 793L14.3 789.7C28.7 786.3 57.3 779.7 85.8 770.7C114.3 761.7 142.7 750.3 171.2 757.2C199.7 764 228.3 789 257 788.8C285.7 788.7 314.3 763.3 343 754.2C371.7 745 400.3 752 428.8 750C457.3 748 485.7 737 514.2 737.7C542.7 738.3 571.3 750.7 585.7 756.8L600 763L600 901L585.7 901C571.3 901 542.7 901 514.2 901C485.7 901 457.3 901 428.8 901C400.3 901 371.7 901 343 901C314.3 901 285.7 901 257 901C228.3 901 199.7 901 171.2 901C142.7 901 114.3 901 85.8 901C57.3 901 28.7 901 14.3 901L0 901Z" fill="#637ec0"></path><path d="M0 830L14.3 832.2C28.7 834.3 57.3 838.7 85.8 841.7C114.3 844.7 142.7 846.3 171.2 839.3C199.7 832.3 228.3 816.7 257 815.5C285.7 814.3 314.3 827.7 343 830C371.7 832.3 400.3 823.7 428.8 821.8C457.3 820 485.7 825 514.2 832C542.7 839 571.3 848 585.7 852.5L600 857L600 901L585.7 901C571.3 901 542.7 901 514.2 901C485.7 901 457.3 901 428.8 901C400.3 901 371.7 901 343 901C314.3 901 285.7 901 257 901C228.3 901 199.7 901 171.2 901C142.7 901 114.3 901 85.8 901C57.3 901 28.7 901 14.3 901L0 901Z" fill="#5170b8"></path></svg>