<svg id="visual" viewBox="0 0 600 900" width="600" height="900" xmlns="http://www.w3.org/2000/svg" xmlns:xlink="http://www.w3.org/1999/xlink" version="1.1"><rect x="0" y="0" width="600" height="900" fill="#FFFFFF"></rect><defs><linearGradient id="grad1_0" x1="0%" y1="100%" x2="100%" y2="0%"><stop offset="30%" stop-color="#ffffff" stop-opacity="1"></stop><stop offset="70%" stop-color="#ffffff" stop-opacity="1"></stop></linearGradient></defs><defs><linearGradient id="grad2_0" x1="0%" y1="100%" x2="100%" y2="0%"><stop offset="30%" stop-color="#ffffff" stop-opacity="1"></stop><stop offset="70%" stop-color="#ffffff" stop-opacity="1"></stop></linearGradient></defs><g transform="translate(600, 900)"><path d="M-459.7 0C-443.8 -30.4 -428 -60.8 -426 -97.2C-424.1 -133.7 -436.1 -176.2 -414.2 -199.5C-392.3 -222.7 -336.5 -226.7 -305.7 -243.8C-274.9 -260.8 -269.2 -290.9 -252.5 -316.6C-235.8 -342.4 -208 -363.7 -178.3 -370.3C-148.6 -376.9 -117 -368.8 -87 -381.2C-57 -393.6 -28.5 -426.7 0 -459.7L0 0Z" fill="#5170b8"></path></g><g transform="translate(0, 0)"><path d="M459.7 0C439.5 30.1 419.2 60.3 414.3 94.6C409.5 128.9 420 167.3 406.3 195.7C392.6 224.1 354.7 242.3 322.9 257.5C291.1 272.7 265.5 284.7 245.7 308C225.8 331.4 211.8 366.1 189.2 392.8C166.5 419.6 135.3 438.4 102.3 448.2C69.3 458 34.7 458.9 0 459.7L0 0Z" fill="#5170b8"></path></g></svg>